<svg xmlns="http://www.w3.org/2000/svg" viewBox="0 0 128 128" role="img" aria-label="MotionAI">
  <defs>
    <linearGradient id="ma-bg" x1="8" y1="8" x2="120" y2="120" gradientUnits="userSpaceOnUse">
      <stop offset="0%" stop-color="#a78bfa"/>
      <stop offset="42%" stop-color="#7c3aed"/>
      <stop offset="100%" stop-color="#06b6d4"/>
    </linearGradient>
    <linearGradient id="ma-spark" x1="0%" y1="0%" x2="100%" y2="100%">
      <stop offset="0%" stop-color="#ffffff"/>
      <stop offset="100%" stop-color="#67e8f9"/>
    </linearGradient>
    <filter id="ma-glow" x="-20%" y="-20%" width="140%" height="140%">
      <feGaussianBlur stdDeviation="2.5" result="b"/>
      <feMerge>
        <feMergeNode in="b"/>
        <feMergeNode in="SourceGraphic"/>
      </feMerge>
    </filter>
  </defs>
  <rect x="4" y="4" width="120" height="120" rx="28" fill="url(#ma-bg)"/>
  <path d="M 78 26 A 42 42 0 0 1 108 58" fill="none" stroke="rgba(255,255,255,0.42)" stroke-width="3" stroke-linecap="round"/>
  <circle cx="108" cy="58" r="3.5" fill="#a5f3fc" opacity="0.95"/>
  <path fill="#ffffff" d="M 30 94 V 38 L 52 66 L 64 50 L 76 66 L 98 38 V 94 H 88 V 54 L 64 78 L 40 54 V 94 Z"/>
  <path fill="url(#ma-spark)" filter="url(#ma-glow)" d="M 64 24 L 66.2 30.8 L 73 33 L 66.2 35.2 L 64 42 L 61.8 35.2 L 55 33 L 61.8 30.8 Z"/>
</svg>
